<?xml version="1.0" encoding="UTF-8" standalone="no"?>
<svg
   version="1.0"
   width="960.000000pt"
   height="960.000000pt"
   viewBox="0 0 960.000000 960.000000"
   preserveAspectRatio="xMidYMid meet"
   id="svg40"
   sodipodi:docname="логотип1.svg"
   inkscape:version="1.1.1 (3bf5ae0d25, 2021-09-20)"
   xmlns:inkscape="http://www.inkscape.org/namespaces/inkscape"
   xmlns:sodipodi="http://sodipodi.sourceforge.net/DTD/sodipodi-0.dtd"
   xmlns="http://www.w3.org/2000/svg"
   xmlns:svg="http://www.w3.org/2000/svg">
  <defs
     id="defs44" />
  <sodipodi:namedview
     id="namedview42"
     pagecolor="#ffffff"
     bordercolor="#666666"
     borderopacity="1.0"
     inkscape:pageshadow="2"
     inkscape:pageopacity="0.0"
     inkscape:pagecheckerboard="0"
     inkscape:document-units="pt"
     showgrid="false"
     inkscape:zoom="1.7942835"
     inkscape:cx="698.05024"
     inkscape:cy="869.14918"
     inkscape:window-width="1920"
     inkscape:window-height="1001"
     inkscape:window-x="-9"
     inkscape:window-y="-9"
     inkscape:window-maximized="1"
     inkscape:current-layer="svg40" />
  <path
     d="m 380.5,143.7 c -17.5,2.4 -29.3,10 -35,22.5 -8,17.6 -4.9,40.2 10.1,72.9 5.5,12 6.2,16.4 4.1,25 -2.6,10.5 -3.9,37.4 -2.7,56.2 1.5,24.2 4.4,38.3 10.6,51.3 2.8,6 10.9,16.3 11.9,15.2 0.2,-0.1 -0.1,-2.8 -0.6,-5.8 -2.8,-17.3 -4.1,-40.5 -3.6,-64 0.4,-25.3 1.6,-34.5 5.7,-46.4 l 1.9,-5.6 -8.2,-10.5 c -16.4,-21 -22.9,-35.8 -22.9,-52 0,-6.4 0.6,-11 2.2,-15.8 1.2,-3.8 2.3,-6.7 2.6,-6.4 0.2,0.2 0,3.5 -0.6,7.4 -1.7,12.3 1,27.4 7.2,39.8 6.2,12.3 21.6,32.5 24.9,32.5 3.2,0 3,-1.8 -0.5,-6.7 -1.8,-2.6 -4.5,-7.1 -6,-10 -3.2,-6.4 -7.6,-21.4 -7.5,-25.7 0,-2.7 0.3,-2.3 2.3,3 1.2,3.3 3.3,7.8 4.6,10 2.8,4.6 10.1,14.4 10.7,14.4 0.3,0 -3,-6.2 -6.3,-11.6 -4.1,-6.8 -9.7,-24.7 -10.8,-34.9 l -0.6,-5 2.3,7 c 2.4,7.1 9.6,23 10.2,22.3 0.2,-0.2 -0.2,-2.9 -1,-6 -1.7,-7.6 -2.9,-18.7 -1.7,-16.8 0.6,0.8 1.3,3.1 1.7,5 1.1,5.2 6.4,17.7 8.2,19.2 1.4,1.1 1.4,0.9 -0.1,-1.9 -2,-3.9 -5.9,-19.8 -5.3,-22.1 0.2,-0.9 1.1,0.8 2,3.8 2.7,8.8 9.3,19.6 16.9,27.6 3.9,4.1 7.3,7.3 7.5,7.1 0.2,-0.2 -1.6,-3.3 -4,-6.9 -7.6,-11.3 -12.2,-24.6 -14.2,-41.1 -0.4,-3.1 -0.5,-5.7 -0.2,-5.7 0.3,0 1.2,3.3 2.1,7.4 0.9,4 3.5,10.9 5.7,15.2 2.2,4.4 3.7,7 3.3,5.9 -2.7,-8.9 -5.4,-30.2 -3.7,-29.2 0.6,0.4 1.3,3.1 1.7,6.2 0.8,7.2 5.5,20 10.2,27.8 4.9,7.9 16.2,19.2 24.2,23.8 4.9,2.9 7.6,3.7 13.3,4.3 4,0.3 7.4,0.5 7.6,0.2 0.2,-0.2 -1.7,-1.4 -4.2,-2.6 -9.4,-4.6 -20.7,-14.7 -24.5,-22 -0.7,-1.5 1.1,-0.2 4.6,3.3 6.6,6.5 18,12.7 27.9,15.2 7,1.7 21.2,3.5 27,3.5 l 4,-0.1 -4,-3.5 c -5.2,-4.6 -10.9,-7.5 -26.8,-13.5 -7.1,-2.7 -15.2,-6.2 -18,-7.7 -9.8,-5.2 -22.9,-19.4 -25.1,-27.2 -0.4,-1.4 1.1,0.3 3.4,3.8 5,7.5 13.3,14.5 21.7,18.4 5.7,2.6 28.2,9.3 28.9,8.6 0.1,-0.2 -4.3,-3 -9.9,-6.3 -11.4,-6.7 -23.7,-15.7 -28.2,-20.5 -2.5,-2.7 -1.9,-2.5 3.5,1.5 7,5.1 19.7,11.8 36.2,19 l 10.3,4.5 -15.3,-15 c -8.4,-8.2 -15,-15 -14.7,-15 0.4,0 4.3,2.9 8.8,6.4 4.5,3.6 14.1,11.1 21.2,16.6 7.2,5.6 14.7,11.9 16.9,13.9 l 3.8,3.6 -0.7,-3.5 c -2.4,-11.7 -9.6,-24.1 -20.5,-35 -8.7,-8.7 -15.7,-13.5 -25.5,-17.4 -6.8,-2.8 -8.1,-3.9 -2.9,-2.4 28.4,7.7 52.2,32.3 58.9,60.8 1,4.1 1.9,8.1 2.1,8.8 0.2,0.8 1.2,1.2 2.1,1 1.5,-0.3 1.8,-1.6 2.1,-8.2 0.2,-4.8 -0.3,-9.8 -1.2,-13 -1.4,-5 -1.4,-5 0.3,-2.9 1,1.2 2.7,4.9 3.7,8.2 1.1,3.4 2.2,6.1 2.6,6.1 0.4,0 1.3,-2.6 2,-5.8 l 1.3,-5.7 0.3,5.3 c 0.2,2.9 -0.4,7.7 -1.2,10.7 -0.9,2.9 -1.6,5.5 -1.6,5.8 0,0.2 2.1,0.7 4.7,1 5.6,0.6 7.6,-0.5 16.7,-9.2 4.8,-4.6 5.5,-5.1 4.3,-2.6 -0.9,1.6 -3.1,5.2 -5.1,7.9 -1.9,2.8 -3.4,5.1 -3.2,5.3 0.2,0.2 4.9,1.5 10.5,2.8 11,2.7 16.5,5.1 19.6,8.5 1.7,1.9 2,3.4 1.7,9.4 -0.1,4 -0.4,8.2 -0.7,9.5 -0.3,1.7 0,2.1 1,1.7 7.9,-3 14.9,-3 20.7,0 l 3.1,1.6 -0.6,-14.9 c -0.5,-16.9 -2.1,-23.4 -6.9,-28.9 -3.1,-3.5 -3.4,-3.6 -8.5,-3.2 l -5.3,0.5 v -4.1 c 0,-4.8 -2,-12.8 -4.3,-17.3 -4.6,-8.8 -14.7,-14.2 -27.7,-15 -4.7,-0.3 -9.7,-1.2 -11.2,-2 -1.5,-0.7 -7.8,-6.1 -14,-12 -12.3,-11.6 -20.7,-18.2 -27.9,-21.8 -12.3,-6.3 -42.5,-13.6 -69.9,-17 -11.3,-1.4 -38.9,-1.8 -46.5,-0.8 z"
     id="path2"
     style="fill:#000000;stroke:none;stroke-width:0.1" />
  <path
     d="m 584,282.3 -5.4,1.2 0.3,5.5 c 0.1,3 0.4,5.6 0.6,5.8 0.2,0.2 1.8,-0.4 3.7,-1.4 3.5,-1.9 12.4,-2.4 17.1,-1.1 2.6,0.7 2.7,0.7 2.7,-3.6 0,-3.6 -0.4,-4.6 -2.4,-5.5 -3.9,-1.8 -10.8,-2.1 -16.6,-0.9 z"
     id="path4"
     style="fill:#000000;stroke:none;stroke-width:0.1" />
  <path
     d="m 585.1,297 c -2.4,0.5 -4.6,1.2 -4.9,1.4 -0.2,0.3 -0.1,3 0.3,6.1 0.6,5.3 0.8,5.6 2.8,5 1.2,-0.4 5.9,-0.9 10.4,-1.2 l 8.1,-0.5 0.4,-4.7 c 0.3,-2.5 0.2,-4.9 -0.2,-5.3 -1,-1.3 -12.2,-1.8 -16.9,-0.8 z"
     id="path6"
     style="fill:#000000;stroke:none;stroke-width:0.1" />
  <path
     d="m 584.7,313.7 c -2,0.3 -2.7,0.9 -2.3,2.1 4.1,14.6 6.8,35 6.4,49.2 -0.1,4.1 -0.3,5 -0.5,2.5 -2.9,-33.9 -8.7,-42.1 -31.8,-44.5 -6.5,-0.7 -34,-1 -78.5,-0.7 -61.2,0.3 -69.3,0.5 -76,2.1 -9.1,2.2 -12.3,4 -15.4,8.6 -5.3,8.1 -9.2,25.6 -8,36.9 1.4,14.6 4,20.7 11.4,27.4 5.6,5.1 12.6,8.1 22.2,9.7 18.5,3 33,-1.1 44.4,-12.4 5.9,-5.9 9.8,-13.2 13.9,-25.5 3.6,-10.8 5.7,-13.1 12.5,-13.1 7,0 9.8,2.9 13.5,14 3.7,11.3 7.4,18.6 12.1,23.7 16.1,17.7 50.6,19.2 68.9,3.1 4.7,-4.1 7.4,-9.6 9.1,-18.3 l 1.4,-7 -0.4,7 -0.4,7 2,-2.5 c 3.5,-4.2 7.6,-14.1 9.3,-22.5 1.5,-7.3 3.8,-45 2.8,-46.8 -0.4,-0.7 -11.6,-0.7 -16.6,0 z"
     id="path8"
     style="fill:#000000;stroke:none;stroke-width:0.1" />
  <path
     d="m 588.6,433.5 c -0.4,1.6 -2.1,8 -3.6,14.2 -8.3,32.5 -23.3,51.4 -43.9,55.3 -2.9,0.5 -10.1,1 -15.8,1 -11.6,0 -12.6,0.4 -19.6,6.6 -11.7,10.5 -25.2,9.6 -42,-2.8 l -5.8,-4.3 -21.2,-0.5 c -20.7,-0.5 -21.3,-0.6 -25.7,-3.2 -5.1,-2.9 -8.7,-6.6 -11.7,-11.8 -2.4,-4 -15.8,-37.1 -17.9,-44.3 -1.9,-5.9 -3.7,-6.3 -3,-0.5 0.4,2.4 1.7,15.5 3.1,29.3 5.7,56.6 8,67.8 19,90.7 2,4.3 4,8 4.4,8.2 0.4,0.3 2.2,-2.8 4.1,-6.9 1.8,-4.1 3.6,-7.5 4.1,-7.5 1,0 0.6,2.3 -1.7,10 -3.1,10.3 -1.5,14.6 9.4,25.3 l 7.9,7.9 0.6,-15.4 c 0.5,-16.2 2.4,-30.8 4,-30.8 0.5,0 0.6,9.3 0.2,23.2 -0.6,21.4 -0.5,23.6 1.2,26.5 1.3,2.3 9.3,8.2 28.1,20.8 14.4,9.6 27.2,17.5 28.3,17.5 2.2,0 3.9,-1.3 24.9,-18.8 7.4,-6.2 14.1,-12.5 14.8,-13.8 1,-1.8 1.5,-9.6 1.9,-26.5 0.3,-13.2 1,-24.2 1.5,-24.5 0.4,-0.3 0.8,0.4 0.8,1.4 0,4.7 3.1,42.6 3.5,43.1 0.3,0.2 0.6,0.2 0.8,0 0.2,-0.2 5.2,-6.5 11.1,-13.9 5.9,-7.4 11.2,-14.6 11.7,-15.9 0.6,-1.4 0.5,-5.4 -0.1,-10.4 -1.4,-11.7 -1.2,-12.1 2,-3.7 l 2.8,7.5 4.5,-9.5 c 12.5,-26.2 18.2,-52.6 19.3,-89 0.6,-19.8 -0.6,-40 -2,-34.5 z"
     id="path10"
     style="fill:#000000;stroke:none;stroke-width:0.1" />
  <path
     d="m 469.7,435.1 c -7.4,1.2 -13.2,5.3 -26.2,18.5 -12.8,13.1 -19.4,17.4 -26.6,17.4 -4.5,0 -9.6,-3.3 -12.9,-8.4 -2.9,-4.5 -3.7,-3.2 -1.9,3.2 1.9,6.7 9.8,14.5 16.9,16.6 10.7,3.2 26.3,1.5 38.5,-4.2 8.1,-3.8 16.7,-12.2 21,-20.5 1.7,-3.1 3.7,-5.7 4.5,-5.7 0.8,0 2.8,2.6 4.5,5.7 5.7,11 16.7,19.9 29.4,23.9 7.5,2.4 22.7,2.9 29.2,1.1 9.2,-2.7 16.5,-10.5 18.2,-19.5 0.8,-4.2 -0.2,-4.1 -3.1,0.3 -2.9,4.5 -7.7,7.5 -12.2,7.5 -7.1,0 -13.7,-4.3 -27,-17.9 -9.2,-9.3 -14.1,-13.5 -18.2,-15.5 -5.7,-2.8 -5.9,-2.8 -20.3,-2.3 -2.2,0.1 -5.1,-0.1 -6.5,-0.4 -1.4,-0.3 -4.6,-0.3 -7.3,0.2 z"
     id="path12"
     style="fill:#000000;stroke:none;stroke-width:0.1" />
  <path
     d="m 317,461.1 c -8,3.6 -13.8,10.7 -15.5,18.9 -1.3,6.3 -3,8 -8,8 -3.6,0 -4.8,0.5 -6,2.4 -3,4.6 2.5,9.7 6.5,6.1 2.5,-2.3 5.8,-1.1 6.5,2.3 1,4.4 3.7,9.2 7,12.1 8.1,7.1 16.1,20 20.5,33.2 2.8,8.3 6,24.5 6.1,31.2 0,2.9 0.3,5.9 0.7,6.8 0.7,1.8 14.2,11.2 14.9,10.5 0.2,-0.2 -1.5,-5.3 -3.7,-11.2 -9.1,-23.7 -9.3,-24.4 -9.8,-41.9 -0.2,-10 0,-17.6 0.7,-20.2 0.7,-2.4 3.5,-6.9 7.1,-11.2 3.3,-3.9 6.3,-8.4 6.7,-9.9 0.5,-1.5 0.8,-6.8 0.8,-11.7 -0.1,-9.3 -2.2,-16.2 -6.3,-20.9 -5.5,-6.2 -19.5,-8.5 -28.2,-4.5 z m 16.2,3.9 c 4.3,1.2 10.1,7.3 11.8,12.5 1.6,4.8 0.9,14 -1.5,19 -4.5,9.3 -15.4,16.5 -22.9,15.1 -7.9,-1.5 -16.6,-11.6 -16.6,-19.3 0,-8.1 7.4,-21.9 13.3,-25 6.5,-3.3 10.2,-3.9 15.9,-2.3 z"
     id="path14"
     style="fill:#000000;stroke:none;stroke-width:0.1" />
  <path
     d="m 621.5,461.4 c -6,2.8 -7.7,4.6 -10.7,11.1 -1.7,4 -2.2,6.9 -2.3,14 0,4.9 0.3,10.2 0.8,11.7 0.4,1.5 3.4,6 6.7,9.9 3.6,4.3 6.4,8.8 7.1,11.2 0.7,2.6 0.9,10.2 0.7,20.2 -0.5,17.5 -0.7,18.2 -9.8,41.9 -2.2,5.9 -3.9,11 -3.7,11.2 0.7,0.7 14.2,-8.7 14.9,-10.5 0.4,-0.9 0.7,-3.9 0.7,-6.8 0.1,-7.1 3.7,-25.3 6.5,-32.7 5.1,-13.5 12.3,-24.9 20.1,-31.7 3.3,-2.9 6,-7.7 7,-12.1 0.7,-3.4 4,-4.6 6.5,-2.3 4,3.6 9.5,-1.5 6.5,-6.1 -1.2,-1.9 -2.4,-2.4 -6,-2.4 -5,0 -6.7,-1.7 -8,-8 -3.4,-16.5 -21.9,-25.7 -37,-18.6 z M 642,467 c 6.6,3.4 14,16.7 14,25.3 0,7.7 -8.7,17.8 -16.6,19.3 -7.5,1.4 -18.4,-5.8 -22.9,-15.1 -2.6,-5.6 -3.1,-14.5 -1.1,-19.9 1.9,-4.9 7,-10.3 11.2,-11.6 4,-1.3 10.6,-0.4 15.4,2 z"
     id="path16"
     style="fill:#000000;stroke:none;stroke-width:0.1" />
  <path
     d="m 196,464.4 c 0,1.4 0.3,2.6 0.8,2.6 12.8,0.1 23.6,0.9 27,2 5.3,1.7 12,7.4 13.9,11.8 1.3,3.2 1.3,3.6 -1.2,7.4 -6.7,10.1 -5.1,27.4 3.5,37.1 4.2,4.9 14.7,9.7 23.2,10.8 8.4,1 15.5,4.6 21.8,10.9 4,3.9 4.8,5.5 6.3,12.2 2.5,10.3 5,13.9 10.9,15.6 8.9,2.5 16.4,11.9 29.3,36.9 l 7.9,15.2 10.6,3 c 14.2,4.2 20.9,5.6 21.7,4.7 0.9,-0.9 -6.1,-14.2 -13,-24.7 -4.4,-6.9 -6.7,-9 -23.1,-21.5 -21.3,-16.4 -27.3,-21.8 -33.2,-30 -8.9,-12.5 -13.4,-25.5 -13.4,-39 0,-24.7 -7.5,-35.3 -33.8,-47.6 -13.7,-6.5 -25.1,-9 -43.4,-9.5 L 196,461.8 Z m 70.8,21.5 c 16.8,8.7 21.1,33.8 7.2,42.4 -7.6,4.7 -22.2,1.1 -29,-7.1 -3.6,-4.3 -7,-12.9 -7,-17.5 0,-8 4,-15 10.2,-18 4.6,-2.3 14,-2.2 18.6,0.2 z m 82.7,136.5 c -0.8,4.9 -1.8,5.7 -3.5,2.7 -1.4,-2.8 -1.3,-3.8 1.1,-6.2 2.7,-2.7 3.2,-2 2.4,3.5 z m 5.4,-2.2 c 0.9,2.6 -0.4,6.4 -2.5,7.2 -1,0.4 -1.4,-0.3 -1.4,-2.2 0,-3.7 1.1,-7.2 2.1,-7.2 0.6,0 1.3,1 1.8,2.2 z"
     id="path18"
     style="fill:#000000;stroke:none;stroke-width:0.1" />
  <path
     d="m 732.9,463 c -14.8,2.5 -30.6,8.8 -43.6,17.4 -13.2,8.7 -16.9,16.5 -18.3,38 -0.9,14.6 -2.2,20.2 -7.3,30.2 -6.5,12.7 -13.3,19.7 -37.8,38.6 -17.9,13.7 -20.1,15.7 -24.6,22.7 -6.9,10.5 -13.9,23.8 -13,24.7 0.8,0.9 7.5,-0.5 21.7,-4.7 l 10.6,-3 7.9,-15.2 c 12.9,-25 20.4,-34.4 29.3,-36.9 5.9,-1.7 8.4,-5.3 10.9,-15.6 1.5,-6.7 2.3,-8.3 6.3,-12.2 6.3,-6.3 13.4,-9.9 21.7,-10.9 7.6,-0.9 18,-5.5 22.5,-9.8 6.1,-5.9 9.9,-19.4 8,-28.8 -0.6,-3 -2.3,-7.2 -3.7,-9.3 -2.5,-3.8 -2.5,-4.2 -1.2,-7.4 1.9,-4.4 8.6,-10.1 13.9,-11.8 3.4,-1.1 14.2,-1.9 27.1,-2 0.4,0 0.7,-1.1 0.7,-2.5 V 462 l -13.2,0.1 c -7.3,0.1 -15.4,0.5 -17.9,0.9 z m -18.6,24.3 c 4.4,3.3 6.5,7.1 7.3,13 0.8,5.8 -1.7,14.4 -5.9,19.9 -6.9,9.1 -21.7,13 -29.9,8 -11.1,-6.9 -10.9,-26 0.5,-36.9 6.5,-6.3 9.2,-7.4 17.3,-7.1 6,0.3 7.7,0.8 10.7,3.1 z M 614.5,621 c 0.6,2 -0.9,6 -2.4,6 -0.8,0 -2.1,-5.5 -2.1,-8.8 0,-1.9 3.7,0.3 4.5,2.8 z m -6.1,-0.8 c 1,3.8 0.7,6.8 -0.7,6.8 -2,0 -3.6,-4.1 -2.6,-6.8 0.5,-1.2 1.2,-2.2 1.8,-2.2 0.5,0 1.1,1 1.5,2.2 z"
     id="path20"
     style="fill:#000000;stroke:none;stroke-width:0.1" />
  <path
     d="m 166.1,514.7 c -0.7,5.4 -1.8,14.3 -2.5,19.8 l -1.1,10 -6,1.2 c -3.3,0.7 -10.9,1.9 -17,2.8 -6,0.8 -12.5,1.8 -14.4,2.1 l -3.4,0.5 5.4,5.6 c 5.1,5.2 23,21.1 33.5,29.9 7.6,6.2 21,16.3 30.3,22.6 l 8.5,5.8 17.8,-27.1 C 227,573 235,560.6 235,560.2 c 0,-0.4 -3.3,-2.9 -7.3,-5.7 -13.3,-9.1 -32.9,-24.9 -46.3,-37.3 -7.3,-6.7 -13.5,-12.2 -13.7,-12.2 -0.2,0 -0.9,4.4 -1.6,9.7 z"
     id="path22"
     style="fill:#000000;stroke:none;stroke-width:0.1" />
  <path
     d="m 782,514.1 c -14.5,13.8 -36.5,31.6 -51.8,41.9 -2.8,1.9 -5.2,3.8 -5.2,4.2 0,0.4 8,12.8 17.8,27.7 l 17.8,27.1 8.5,-5.8 c 11.6,-7.9 23.4,-16.9 36.6,-28 12.4,-10.3 32.6,-29.2 31.9,-29.9 -0.2,-0.2 -6.6,-1.3 -14.2,-2.4 -7.7,-1.1 -16.6,-2.5 -19.9,-3.2 l -6,-1.2 -1.1,-10 c -2.2,-19 -3.7,-29.5 -4.3,-29.5 -0.3,0.1 -4.9,4.2 -10.1,9.1 z"
     id="path24"
     style="fill:#000000;stroke:none;stroke-width:0.1" />
  <path
     id="path26"
     style="fill:#000000;stroke:none;stroke-width:0.133333"
     d="M 302.93359 769.33398 C 302.40026 769.33398 300.93294 771.06589 299.59961 773.19922 L 297.33398 777.06641 L 315.06641 788 C 324.66641 794.13333 333.33333 799.73372 334 800.40039 C 336 802.13372 324.00078 796.13346 308.80078 787.4668 C 298.80078 781.73346 295.20039 780.39961 294.40039 781.59961 C 292.00039 785.06628 290.40026 788.26654 290.93359 788.5332 C 294.93359 791.3332 318.26641 805.86654 323.06641 808.5332 C 326.53307 810.66654 329.33398 812.53359 329.33398 812.93359 C 329.33398 813.73359 303.19935 799.86654 294.66602 794.5332 L 288.66602 790.80078 L 286.13281 794.93359 L 283.59961 798.93359 L 286.80078 801.4668 C 288.53411 802.80013 296.13242 807.60091 303.73242 812.26758 C 323.59909 824.40091 324.13333 825.33333 306 816 C 297.2 811.33333 288.53411 806.53255 286.80078 805.19922 C 282.53411 801.73255 281.06706 801.99935 278.40039 806.66602 L 276.13281 810.5332 L 291.73242 820.40039 C 300.26576 825.73372 309.46667 831.46641 312 833.06641 C 314.53333 834.66641 316.26576 836 315.73242 836 C 314.53242 836 278.80091 816.40039 276.26758 814.40039 C 275.33424 813.60039 274.40091 813.20013 274.26758 813.4668 C 270.00091 819.4668 269.06745 821.73359 270.80078 822.93359 C 271.86745 823.46693 281.33333 829.46615 292 836.13281 C 315.06667 850.66615 313.33411 850.53242 286.80078 835.73242 L 267.4668 824.93359 L 265.06641 828 C 263.73307 829.6 262.66602 831.46667 262.66602 832 C 262.66602 833.06667 277.59935 843.06589 294.66602 853.19922 C 300.93268 856.93255 305.33268 860 304.66602 860 C 303.46602 860 287.46641 851.46719 267.06641 839.86719 L 260.26758 836 L 257.33398 840 L 254.5332 844 L 261.59961 848.40039 C 285.86628 864.00039 326.93398 885.19974 359.33398 899.06641 C 446.40065 936.26641 543.46667 956 640 956 C 753.46667 956 861.20052 930.26745 963.86719 878.80078 C 986.00052 867.73411 1023.0665 846.66758 1024.5332 844.26758 C 1024.9332 843.60091 1023.8676 841.59961 1022.2676 839.59961 L 1019.334 836.13281 L 998 848 C 973.6 861.86667 967.33333 863.99961 988 851.59961 C 1008.2667 839.46628 1017.334 833.46615 1017.334 832.13281 C 1017.334 831.46615 1016.2669 829.6 1014.9336 828 L 1012.5332 824.93359 L 991.73242 836.5332 C 980.39909 842.79987 970.53333 848 970 848 C 969.33333 848 977.59948 842.66667 988.13281 836 C 998.66615 829.46667 1008.1326 823.46693 1009.1992 822.93359 C 1010.6659 821.86693 1010.5332 821.06719 1008.5332 817.86719 C 1007.1999 815.73385 1006 813.86628 1006 813.59961 C 1005.8667 813.46628 1000.6665 816.13242 994.5332 819.73242 C 976.66654 829.99909 962.66602 837.46745 962.66602 836.80078 C 962.66602 836.53411 964.93242 834.79922 967.73242 833.19922 C 970.39909 831.59922 979.73424 825.73372 988.26758 820.40039 L 1003.8672 810.5332 L 1001.5996 806.66602 C 998.93294 801.99935 997.46589 801.73255 993.19922 805.19922 C 991.46589 806.53255 982.8 811.33333 974 816 C 955.86667 825.33333 956.40091 824.40091 976.26758 812.26758 C 983.86758 807.60091 991.46589 802.80013 993.19922 801.4668 L 996.40039 798.93359 L 993.86719 794.93359 L 991.33398 790.80078 L 985.33398 794.5332 C 976.80065 799.86654 950.66602 813.73359 950.66602 812.93359 C 950.66602 812.53359 953.46641 810.66654 957.06641 808.5332 C 961.73307 805.86654 985.06641 791.3332 989.06641 788.5332 C 989.59974 788.26654 987.99961 785.06628 985.59961 781.59961 C 984.79961 780.39961 981.19922 781.73346 971.19922 787.4668 C 955.99922 796.13346 944 802.13372 946 800.40039 C 946.8 799.73372 955.33359 794.13333 964.93359 788 L 982.66602 777.06641 L 980.40039 773.19922 C 979.06706 771.06589 977.59974 769.33398 977.06641 769.33398 C 976.39974 769.33398 967.06758 774.53359 956.26758 780.93359 C 901.73424 813.06693 834.53333 839.20052 774 851.86719 C 724.26667 862.40052 691.46667 865.73242 640 865.73242 C 565.6 865.73242 506.26693 855.99987 436.93359 832.5332 C 397.06693 818.9332 358.53242 801.46693 323.73242 780.93359 C 312.93242 774.53359 303.60026 769.33398 302.93359 769.33398 z M 569.08984 877.57031 C 574.50391 877.57031 578.86068 879.39323 582.16016 883.03906 C 585.47786 886.6849 587.13672 891.45182 587.13672 897.33984 C 587.13672 903.73828 585.44141 908.79688 582.05078 912.51562 C 578.66016 916.23438 574.12109 918.09375 568.43359 918.09375 C 562.8737 918.09375 558.41667 916.26172 555.0625 912.59766 C 551.72656 908.93359 550.05859 904.16667 550.05859 898.29688 C 550.05859 891.98958 551.76302 886.95833 555.17188 883.20312 C 558.58073 879.44792 563.22005 877.57031 569.08984 877.57031 z M 642.67188 877.57031 C 648.08594 877.57031 652.44271 879.39323 655.74219 883.03906 C 659.0599 886.6849 660.71875 891.45182 660.71875 897.33984 C 660.71875 903.73828 659.02344 908.79688 655.63281 912.51562 C 652.24219 916.23438 647.70312 918.09375 642.01562 918.09375 C 636.45573 918.09375 631.9987 916.26172 628.64453 912.59766 C 625.30859 908.93359 623.64062 904.16667 623.64062 898.29688 C 623.64062 891.98958 625.34505 886.95833 628.75391 883.20312 C 632.16276 879.44792 636.80208 877.57031 642.67188 877.57031 z M 520.60938 878.22656 L 541.55469 878.22656 L 541.55469 882.38281 L 525.20312 882.38281 L 525.20312 894.85156 L 532.64062 894.85156 C 536.54167 894.85156 539.57682 895.79948 541.74609 897.69531 C 543.91536 899.57292 545 902.2526 545 905.73438 C 545 909.34375 543.86068 912.19661 541.58203 914.29297 C 539.30339 916.38932 536.19531 917.4375 532.25781 917.4375 L 520.60938 917.4375 L 520.60938 878.22656 z M 594.84766 878.22656 L 605.62109 878.22656 C 609.8138 878.22656 613.05859 879.2474 615.35547 881.28906 C 617.67057 883.33073 618.82812 886.21094 618.82812 889.92969 C 618.82812 893.64844 617.54297 896.69271 614.97266 899.0625 C 612.42057 901.43229 608.96615 902.61719 604.60938 902.61719 L 599.44141 902.61719 L 599.44141 917.4375 L 594.84766 917.4375 L 594.84766 878.22656 z M 676.52344 878.22656 L 694.98047 878.22656 L 694.98047 913.28125 L 700.25781 913.28125 L 700.25781 927.96484 L 696.01953 927.96484 L 696.01953 917.4375 L 667.9375 917.4375 L 667.9375 927.96484 L 663.69922 927.96484 L 663.69922 913.28125 L 666.73438 913.28125 C 669.35938 908.48698 671.58333 902.89062 673.40625 896.49219 C 675.2474 890.07552 676.28646 883.98698 676.52344 878.22656 z M 717.75781 878.22656 L 722.51562 878.22656 L 737.60938 917.4375 L 732.52344 917.4375 L 728.36719 906.44531 L 711.74219 906.44531 L 707.83203 917.4375 L 702.71875 917.4375 L 717.75781 878.22656 z M 742.77734 878.22656 L 747.37109 878.22656 L 747.37109 892.74609 C 747.37109 896.95703 749.61328 899.0625 754.09766 899.0625 C 757.34245 899.0625 761.03385 898.0599 765.17188 896.05469 L 765.17188 878.22656 L 769.76562 878.22656 L 769.76562 917.4375 L 765.17188 917.4375 L 765.17188 899.80078 C 760.9974 902.00651 757.11458 903.10937 753.52344 903.10938 C 750.09635 903.10938 747.44401 902.22526 745.56641 900.45703 C 743.70703 898.67057 742.77734 896.17318 742.77734 892.96484 L 742.77734 878.22656 z M 568.76172 881.72656 C 564.64193 881.72656 561.29688 883.21224 558.72656 886.18359 C 556.15625 889.15495 554.87109 893.05599 554.87109 897.88672 C 554.87109 902.71745 556.11979 906.60937 558.61719 909.5625 C 561.13281 912.4974 564.40495 913.96484 568.43359 913.96484 C 572.73568 913.96484 576.1263 912.5612 578.60547 909.75391 C 581.08464 906.94661 582.32422 903.01823 582.32422 897.96875 C 582.32422 892.79167 581.12109 888.79036 578.71484 885.96484 C 576.30859 883.13932 572.99089 881.72656 568.76172 881.72656 z M 642.34375 881.72656 C 638.22396 881.72656 634.87891 883.21224 632.30859 886.18359 C 629.73828 889.15495 628.45312 893.05599 628.45312 897.88672 C 628.45312 902.71745 629.70182 906.60937 632.19922 909.5625 C 634.71484 912.4974 637.98698 913.96484 642.01562 913.96484 C 646.31771 913.96484 649.70833 912.5612 652.1875 909.75391 C 654.66667 906.94661 655.90625 903.01823 655.90625 897.96875 C 655.90625 892.79167 654.70312 888.79036 652.29688 885.96484 C 649.89062 883.13932 646.57292 881.72656 642.34375 881.72656 z M 599.44141 882.38281 L 599.44141 898.46094 L 604.25391 898.46094 C 607.42578 898.46094 609.84115 897.74089 611.5 896.30078 C 613.17708 894.84245 614.01562 892.79167 614.01562 890.14844 C 614.01562 884.97135 610.95312 882.38281 604.82812 882.38281 L 599.44141 882.38281 z M 680.43359 882.38281 C 680.14193 886.88542 679.13932 892.15365 677.42578 898.1875 C 675.71224 904.22135 673.80729 909.2526 671.71094 913.28125 L 690.38672 913.28125 L 690.38672 882.38281 L 680.43359 882.38281 z M 720 882.98438 C 719.81771 884.09635 719.60807 884.97135 719.37109 885.60938 L 713.27344 902.31641 L 726.86328 902.31641 L 720.71094 885.60938 C 720.51042 885.0625 720.3099 884.1875 720.10938 882.98438 L 720 882.98438 z M 525.20312 899.00781 L 525.20312 913.28125 L 531.65625 913.28125 C 534.3724 913.28125 536.46875 912.64323 537.94531 911.36719 C 539.42188 910.09115 540.16016 908.30469 540.16016 906.00781 C 540.16016 901.34115 537.32552 899.00781 531.65625 899.00781 L 525.20312 899.00781 z "
     transform="scale(0.75)" />
  <path
     d="m 321,655.1 c -2.4,3.3 -2.4,3.4 0.8,4.3 2,0.7 2.2,0.4 2.2,-3.3 0,-2.3 -0.2,-4.1 -0.4,-4.1 -0.3,0 -1.4,1.4 -2.6,3.1 z"
     id="path28"
     style="fill:#000000;stroke:none;stroke-width:0.1" />
  <path
     d="m 360.7,663.2 c -0.6,4 -0.8,3.6 3,4.4 2.5,0.5 3.3,0.2 4.2,-1.4 1.3,-2.4 -0.4,-4.8 -4,-5.7 -2.4,-0.6 -2.7,-0.3 -3.2,2.7 z"
     id="path30"
     style="fill:#000000;stroke:none;stroke-width:0.1" />
  <path
     d="m 175,646.4 c 0,0.2 4.2,3.5 9.3,7.3 68.8,51.5 149.6,84.2 234.2,94.8 29,3.6 70.5,4.7 98.1,2.5 95.2,-7.5 183.6,-40.7 259.2,-97.3 5,-3.8 9.2,-7.1 9.2,-7.3 0,-0.3 -4.6,2.6 -10.2,6.4 -40.6,27.3 -84.5,48.8 -130.3,64 C 534,753.6 414.8,752.3 305.1,713.3 264.4,698.9 222.9,678 186.8,653.8 180.3,649.5 175,646.1 175,646.4 Z"
     id="path32"
     style="fill:#000000;stroke:none;stroke-width:0.1" />
  <path
     d="m 295.9,745.1 c 26.5,11.8 70.7,24.3 105.1,29.9 44.1,7.1 97.4,8 141.5,2.4 28.1,-3.6 60.3,-10.8 86.1,-19.3 15.9,-5.2 39.7,-14.2 39.1,-14.8 -0.2,-0.2 -4.8,1.1 -10.3,2.7 -39.6,12.3 -88.4,21.4 -134.4,25.1 -18.6,1.5 -67.3,1.5 -86,0 -44.6,-3.6 -95.9,-13.1 -134.4,-25 -11.3,-3.5 -13,-3.8 -6.7,-1 z"
     id="path34"
     style="fill:#000000;stroke:none;stroke-width:0.1" />
  <path
     d="m 374.5,795.1 c 7.9,2.6 36.9,8.4 52.1,10.3 41.9,5.3 88.1,4.1 128.9,-3.4 12.7,-2.4 36.7,-8.1 36.1,-8.7 -0.2,-0.2 -9.3,0.5 -20.2,1.6 -68.1,6.9 -123.4,6.5 -198.4,-1.4 l -4.5,-0.5 z"
     id="path36"
     style="fill:#000000;stroke:none;stroke-width:0.1" />
</svg>
