<svg width="81" height="81" viewBox="0 0 81 81" fill="none" xmlns="http://www.w3.org/2000/svg">
<path d="M0.496094 40.5168C0.496094 18.4255 18.406 0.516846 40.4988 0.516846C62.5916 0.516846 80.5015 18.4255 80.5015 40.5168C80.5015 62.6082 62.5916 80.5168 40.4988 80.5168C18.406 80.5168 0.496094 62.6082 0.496094 40.5168Z" fill="#333333"/>
<path d="M32.4996 64.5168C36.9181 64.5168 40.5001 60.9351 40.5001 56.5168V48.5168H32.4996C28.081 48.5168 24.499 52.0986 24.499 56.5168C24.499 60.9351 28.081 64.5168 32.4996 64.5168Z" fill="#0ACF83"/>
<path d="M24.499 40.5168C24.499 36.0986 28.081 32.5168 32.4996 32.5168H40.5001V48.5168H32.4996C28.081 48.5168 24.499 44.9351 24.499 40.5168Z" fill="#4262FF"/>
<path d="M24.499 24.5168C24.499 20.0986 28.081 16.5168 32.4996 16.5168H40.5001V32.5168H32.4996C28.081 32.5168 24.499 28.9351 24.499 24.5168Z" fill="#F24E1E"/>
<path d="M40.499 16.5168H48.4996C52.9181 16.5168 56.5001 20.0986 56.5001 24.5168C56.5001 28.9351 52.9181 32.5168 48.4996 32.5168H40.499V16.5168Z" fill="#FF7262"/>
<path d="M56.5001 40.5168C56.5001 44.9351 52.9181 48.5168 48.4996 48.5168C44.081 48.5168 40.499 44.9351 40.499 40.5168C40.499 36.0986 44.081 32.5168 48.4996 32.5168C52.9181 32.5168 56.5001 36.0986 56.5001 40.5168Z" fill="#1ABCFE"/>
</svg>
